{"title":"Frozen.2010.480p.BRRip.XviD.Feel-Free","uid":5827912,"size":1721377212,"categoryP":"video","categoryS":"movies","magnet":"?xt=urn:btih:9c5decf6a5c160a1ab010c7e9b800304d8cc0201&amp;dn=Frozen.2010.480p.BRRip.XviD.Feel-Free&amp;tr=udp%3A%2F%2Ftracker.openbittorrent.com%3A80&amp;tr=udp%3A%2F%2Fopen.demonii.com%3A1337&amp;tr=udp%3A%2F%2Ftracker.coppersurfer.tk%3A6969&amp;tr=udp%3A%2F%2Fexodus.desync.com%3A6969","seeders":0,"leechers":0,"uploader":".BONE.","files":7,"time":1284398813,"description":"Genre:Drama | Thriller\nLanguage: English\nIMDB:http://www.imdb.com/title/tt1323045/\nSource:720p.DTS.x264-CHD\n\nGeneral\nComplete name :Frozen.2010.480p.BRRip.XviD.Feel-Free.avi\nFormat : AVI\nFormat/Info : Audio Video Interleave\nFile size : 1.60 GiB\nDuration : 1h 33mn\nOverall bit rate : 2 459 Kbps\nVideo #0\nID : 0\nFormat : MPEG-4 Visual\nFormat profile : AdvancedSimple@L5\nFormat settings, BVOP : Yes\nFormat settings, QPel : No\nFormat settings, GMC : No warppoints\nFormat settings, Matrix : Default (H.263)\nMuxing mode : Packed bitstream\nCodec ID : XVID\nCodec ID/Hint : XviD\nDuration : 1h 33mn\nBit rate : 2 002 Kbps\nWidth : 720 pixels\nHeight : 304 pixels\nDisplay aspect ratio : 2.35:1\nFrame rate : 23.976 fps\nResolution : 24 bits\nColorimetry : 4:2:0\nScan type : Progressive\nBits/(Pixel*Frame) : 0.381\nStream size : 1.30 GiB (81%)\nWriting library : XviD 1.2.1 (UTC 2008-12-04)\nAudio #1\nID : 1\nFormat : AC-3\nFormat/Info : Audio Coding 3\nCodec ID : 2000\nDuration : 1h 33mn\nBit rate mode : Constant\nBit rate : 448 Kbps\nChannel(s) : 6 channels\nChannel positions : Front: L C R, Surround: L R, LFE\nSampling rate : 48.0 KHz\nStream size : 299 MiB (18%)\nAlignment : Split accross interleaves\nInterleave, duration : 42 ms (1.00 video frame)\nInterleave, preload duration : 500 ms\n\nPlot\nThree skiers are stranded on a chairlift and forced to make life-or-death choices that prove more perilous than staying put and freezing to death\n\nTRAILER:","torrent":{"xt":"urn:btih:9c5decf6a5c160a1ab010c7e9b800304d8cc0201","amp;dn":"Frozen.2010.480p.BRRip.XviD.Feel-Free","amp;tr":["udp%3A%2F%2Ftracker.openbittorrent.com%3A80","udp%3A%2F%2Fopen.demonii.com%3A1337","udp%3A%2F%2Ftracker.coppersurfer.tk%3A6969","udp%3A%2F%2Fexodus.desync.com%3A6969"],"infoHash":"9c5decf6a5c160a1ab010c7e9b800304d8cc0201","infoHashBuffer":{"type":"Buffer","data":[156,93,236,246,165,193,96,161,171,1,12,126,155,128,3,4,216,204,2,1]},"announce":[],"urlList":[]}}